<?xml version="1.0" standalone="no"?>
<!DOCTYPE svg PUBLIC "-//W3C//DTD SVG 20010904//EN"
 "http://www.w3.org/TR/2001/REC-SVG-20010904/DTD/svg10.dtd">
<svg version="1.0" xmlns="http://www.w3.org/2000/svg"
 width="795.000000pt" height="795.000000pt" viewBox="0 0 795.000000 795.000000"
 preserveAspectRatio="xMidYMid meet">
<metadata>
Created by potrace 1.11, written by Peter Selinger 2001-2013
</metadata>
<g transform="translate(0.000000,795.000000) scale(0.100000,-0.100000)"
fill="#000000" stroke="none">
<path d="M3740 7514 c-527 -48 -921 -156 -1350 -371 -216 -108 -349 -190 -538
-331 -435 -323 -786 -741 -1036 -1232 -199 -391 -315 -781 -368 -1235 -19
-163 -16 -616 5 -785 123 -972 617 -1833 1384 -2412 505 -380 1084 -614 1723
-695 188 -24 642 -24 830 0 639 81 1218 315 1723 695 688 520 1166 1280 1336
2127 53 262 65 391 65 700 0 309 -12 438 -65 700 -170 847 -648 1607 -1336
2127 -508 383 -1083 614 -1723 694 -119 15 -552 27 -650 18z"/>
</g>
</svg>
